<svg width="238" height="90" viewBox="0 0 238 90" fill="none" xmlns="http://www.w3.org/2000/svg">
<g clip-path="url(#clip0_1_64)">
<path d="M23.839 15.9288C23.0805 15.8204 23.0444 15.7843 23.4056 15.7482C24.0918 15.6398 25.6811 15.7843 26.8008 16.0372C29.4014 16.6512 31.7492 18.2405 34.2415 21.0217L34.8916 21.7802L35.8308 21.6357C39.84 20.9856 43.9577 21.4912 47.3891 23.0805C48.3282 23.5139 49.8091 24.3808 49.9897 24.5975C50.0619 24.6698 50.1703 25.1393 50.2425 25.6089C50.4954 27.3065 50.387 28.5707 49.8452 29.5459C49.5562 30.0877 49.5562 30.2322 49.7368 30.7018C49.8813 31.063 50.3148 31.3158 50.7121 31.3158C51.5789 31.3158 52.4819 29.9432 52.9154 28.0289L53.096 27.2704L53.4211 27.6316C55.2632 29.6904 56.708 32.5439 56.9247 34.5666L56.9969 35.1084L56.6718 34.6388C56.13 33.8081 55.6244 33.2663 54.9381 32.7967C53.71 31.9659 52.4097 31.7131 48.9783 31.5325C45.872 31.3519 44.1022 31.0991 42.3684 30.5212C39.4066 29.5459 37.8896 28.2817 34.386 23.6223C32.8328 21.5635 31.8576 20.4438 30.8824 19.5046C28.7513 17.4458 26.6202 16.3622 23.839 15.9288Z" fill="#BC10D8"/>
<path d="M50.7482 20.516C50.8204 19.1434 51.001 18.2405 51.3984 17.4097C51.5428 17.0846 51.6873 16.7957 51.7234 16.7957C51.7595 16.7957 51.6873 17.0485 51.579 17.3375C51.29 18.1321 51.2539 19.2518 51.4345 20.516C51.6873 22.1414 51.7957 22.3581 53.5294 24.128C54.324 24.9587 55.2632 26.0062 55.6244 26.4396L56.2384 27.2343L55.6244 26.6563C54.8658 25.934 53.1321 24.5614 52.7348 24.3808C52.4819 24.2363 52.4458 24.2363 52.2652 24.4169C52.1207 24.5614 52.0846 24.7781 52.0846 25.8256C52.0485 27.451 51.8318 28.4623 51.29 29.5098C51.001 30.0516 50.9649 29.9432 51.2178 29.3292C51.3984 28.8596 51.4345 28.6429 51.4345 27.0898C51.4345 23.9474 51.0733 23.1889 48.87 21.9247C48.3282 21.5996 47.3891 21.13 46.8473 20.8772C46.2694 20.6244 45.8359 20.4076 45.872 20.4076C45.9443 20.3354 48.0753 20.9494 48.9061 21.3106C50.1703 21.8163 50.387 21.8524 50.5315 21.8163C50.6398 21.7079 50.7121 21.419 50.7482 20.516Z" fill="#BC10D8"/>
<path d="M25.3199 25.8978C23.8029 23.8029 22.8277 20.5521 23.0444 18.1321L23.1166 17.3736L23.4778 17.4458C24.128 17.5542 25.2477 17.9876 25.7895 18.3127C27.2343 19.1796 27.8844 20.3715 28.4985 23.3333C28.679 24.2002 28.9319 25.2116 29.0402 25.5366C29.2208 26.0784 29.9071 27.3426 30.485 28.1373C30.8824 28.7152 30.6295 29.0041 29.7265 28.9319C28.354 28.7874 26.5119 27.5232 25.3199 25.8978Z" fill="#BC10D8"/>
<path d="M48.9061 41.6099C41.7544 38.7203 39.226 36.2281 39.226 32.0021C39.226 31.388 39.2621 30.8824 39.2621 30.8824C39.2983 30.8824 39.5511 31.0991 39.8762 31.3519C41.321 32.5077 42.9463 33.0134 47.4613 33.6636C50.098 34.0609 51.6151 34.3498 52.9876 34.8194C57.3581 36.2642 60.0671 39.226 60.7172 43.2353C60.8978 44.3911 60.7895 46.5944 60.5005 47.7503C60.2477 48.6532 59.5253 50.3148 59.3447 50.3509C59.3086 50.3509 59.2363 50.1703 59.2363 49.8813C59.1641 48.3643 58.4056 46.9195 57.1414 45.7998C55.6244 44.4995 53.6739 43.5242 48.9061 41.6099Z" fill="#BC10D8"/>
<path d="M43.8493 42.8019C43.7771 42.2601 43.5965 41.5738 43.4881 41.2848L43.3075 40.743L43.6326 41.1404C44.1022 41.6821 44.4634 42.3323 44.7884 43.2353C45.0413 43.9216 45.0413 44.1383 45.0413 45.258C45.0413 46.3416 45.0052 46.5944 44.7884 47.2085C44.4272 48.1837 43.9938 48.87 43.2714 49.6285C41.9711 50.9649 40.2735 51.6873 37.8535 52.0124C37.42 52.0485 36.192 52.1569 35.1084 52.2291C32.3994 52.3736 30.5934 52.6625 28.968 53.2405C28.7513 53.3127 28.5346 53.3849 28.4985 53.3488C28.4262 53.2766 29.5459 52.6264 30.4489 52.193C31.7131 51.5789 33.0134 51.2539 35.8669 50.7482C37.2755 50.5315 38.7203 50.2425 39.0815 50.098C42.6574 48.9783 44.4272 46.1971 43.8493 42.8019Z" fill="#BC10D8"/>
<path d="M47.1362 48.6171C46.1971 46.5583 45.9804 44.6078 46.4861 42.7657C46.5583 42.5851 46.6305 42.4045 46.7028 42.4045C46.775 42.4045 46.9917 42.5129 47.2085 42.6574C47.6419 42.9463 48.5449 43.452 50.8565 44.7162C53.7822 46.3055 55.4437 47.5335 56.5996 48.9422C57.6109 50.1703 58.225 51.5789 58.5139 53.3127C58.6945 54.2879 58.5862 56.6357 58.3333 57.6109C57.5387 60.6811 55.7327 63.1373 53.096 64.5459C52.6987 64.7626 52.3736 64.9071 52.3375 64.9071C52.3013 64.9071 52.4458 64.5459 52.6625 64.1125C53.5294 62.2704 53.6378 60.5005 52.9876 58.5139C52.5903 57.2859 51.7595 55.805 50.098 53.3127C48.1114 50.4231 47.6419 49.6646 47.1362 48.6171Z" fill="#BC10D8"/>
<path d="M20.227 59.6698C22.8999 57.4303 26.1868 55.8411 29.2208 55.3354C30.5212 55.1187 32.6883 55.1909 33.8803 55.516C35.7946 56.0217 37.5284 57.1053 38.4314 58.4417C39.2982 59.742 39.6956 60.8617 40.0929 63.354C40.2374 64.3292 40.418 65.3406 40.4541 65.5573C40.743 66.8576 41.3209 67.8689 42.0433 68.4107C43.1631 69.2415 45.1135 69.2776 47.0279 68.5552C47.3529 68.4469 47.6419 68.3385 47.6419 68.3746C47.7141 68.4469 46.7389 69.097 46.0887 69.4221C45.1858 69.8916 44.4634 70.0361 43.4881 70.0361C41.7544 70.0361 40.2735 69.1331 39.0815 67.3271C38.8287 66.9659 38.323 65.9185 37.8896 64.9432C36.6254 62.0175 35.9752 61.1507 34.4943 60.1754C33.194 59.3447 31.5325 59.1641 30.2683 59.7781C28.6068 60.5728 28.1734 62.7038 29.3292 64.0041C29.7988 64.5459 30.6656 64.9794 31.388 65.0877C32.7245 65.2683 33.8803 64.2208 33.8803 62.8844C33.8803 62.0175 33.5552 61.5119 32.6883 61.1145C31.5325 60.6089 30.2683 61.1868 30.3044 62.3065C30.3044 62.7761 30.5212 63.065 30.9907 63.2817C31.2797 63.4262 31.2797 63.4262 31.0629 63.3901C30.0155 63.1734 29.7626 61.8731 30.5934 61.0423C31.6047 60.031 33.7358 60.4644 34.4582 61.8731C34.7472 62.451 34.7833 63.6068 34.5304 64.3292C33.9164 65.9185 32.1827 66.7492 30.4128 66.2797C29.2208 65.9546 28.7152 65.6295 27.2704 64.1486C24.742 61.548 23.7668 61.0423 20.1548 60.5005L19.4685 60.3922L20.227 59.6698Z" fill="#BC10D8"/>
<path fill-rule="evenodd" clip-rule="evenodd" d="M1.22783 1.55315C9.64372 11.775 22.6107 27.6677 23.2609 28.5346C23.8027 29.257 23.5859 29.9432 22.6829 30.4489C22.1773 30.7379 21.1298 31.0268 20.6241 31.0268C20.0462 31.0268 19.3599 30.7379 18.8904 30.2683C18.5653 29.9432 17.1566 27.8844 13.9781 22.936C11.5581 19.1434 9.49925 16.001 9.46313 15.9649C9.31865 15.8927 9.31865 15.8927 13.7253 23.7668C16.5065 28.7152 17.4095 30.485 17.4095 30.7018C17.4095 31.1713 17.265 31.4241 16.6871 32.0743C15.7118 33.1579 15.2784 34.386 14.9533 36.9505C14.5921 39.8039 13.6169 41.8266 10.8357 45.258C9.21029 47.2807 8.95745 47.6419 8.56013 48.4726C8.05446 49.484 7.90998 50.0619 7.83774 51.3622C7.7655 52.7348 7.90998 53.6016 8.30729 54.902C8.66849 56.0578 9.06581 56.8163 10.041 58.2972C10.8718 59.5975 11.3775 60.5727 11.3775 60.9339C11.3775 61.2229 11.4497 61.2229 12.75 60.9339C15.8563 60.2116 18.4208 58.9835 19.8295 57.4665C20.6964 56.5273 20.9131 56.0217 20.9131 54.7214C20.9131 53.8906 20.877 53.71 20.6602 53.2043C20.299 52.4097 19.6128 51.7595 18.1319 50.7482C16.1814 49.4118 15.3506 48.3282 15.1339 46.8834C14.9533 45.6553 15.17 44.8246 16.2536 42.549C17.3733 40.2012 17.6623 39.226 17.8429 36.8421C17.9513 35.3251 18.1319 34.711 18.5653 34.2415C19.0349 33.7358 19.4322 33.5552 20.5519 33.4107C22.394 33.1579 23.5859 32.6883 24.525 31.7853C25.3558 31.0268 25.717 30.2683 25.7531 29.1486L25.7892 28.3179L25.3197 27.8122C23.6221 25.8617 0.108119 0 -0.000239691 0C-0.0363594 0 0.541556 0.686274 1.22783 1.55315ZM12.3166 52.9154C12.7139 52.2291 12.4972 51.3622 11.847 50.9288C11.233 50.5315 10.2939 50.7121 10.2939 51.2539C10.2939 51.3983 10.3661 51.5428 10.5828 51.6151C10.9079 51.7957 10.944 51.9763 10.6912 52.3736C10.4384 52.7709 10.4384 53.1321 10.7634 53.3849C11.2691 53.7822 11.9554 53.5655 12.3166 52.9154Z" fill="#BC10D8"/>
<path fill-rule="evenodd" clip-rule="evenodd" d="M26.9453 33.9164C26.0784 34.1692 25.2477 35.1084 24.9948 36.0475C24.8504 36.6254 24.9226 37.6729 25.1754 37.9979C25.5728 38.5036 25.934 38.6481 26.9453 38.6481C28.9319 38.6481 30.6295 37.7812 30.8101 36.7337C30.9907 35.8669 30.2322 34.6749 29.1847 34.1331C28.6429 33.8442 27.5232 33.7358 26.9453 33.9164ZM29.257 35.7224C29.5459 35.289 29.4376 34.8194 28.8958 34.4943C27.9205 33.8803 26.4396 34.386 26.4396 35.3251C26.4396 35.7946 27.1981 36.3003 27.9205 36.3003C28.3901 36.3003 29.0402 36.0113 29.257 35.7224Z" fill="#BC10D8"/>
</g>
<path d="M97.418 31.4062H102.674V48.3164C102.674 50.2852 102.252 51.9434 101.408 53.291C100.576 54.6387 99.4219 55.6523 97.9453 56.332C96.4805 57.0117 94.793 57.3516 92.8828 57.3516C90.9727 57.3516 89.2734 57.0117 87.7852 56.332C86.3086 55.6523 85.1484 54.6387 84.3047 53.291C83.4727 51.9434 83.0566 50.2852 83.0566 48.3164V31.4062H88.3301V48.3164C88.3301 49.4648 88.5117 50.4023 88.875 51.1289C89.2383 51.8555 89.7598 52.3887 90.4395 52.7285C91.1309 53.0684 91.9453 53.2383 92.8828 53.2383C93.8438 53.2383 94.6582 53.0684 95.3262 52.7285C96.0059 52.3887 96.5215 51.8555 96.873 51.1289C97.2363 50.4023 97.418 49.4648 97.418 48.3164V31.4062ZM127.846 31.4062V57H122.572L112.289 39.8438V57H107.016V31.4062H112.289L122.59 48.5801V31.4062H127.846ZM138.041 31.4062V57H132.785V31.4062H138.041ZM157.816 48.5098H163.072C162.967 50.2324 162.492 51.7617 161.648 53.0977C160.816 54.4336 159.65 55.4766 158.15 56.2266C156.662 56.9766 154.869 57.3516 152.771 57.3516C151.131 57.3516 149.66 57.0703 148.359 56.5078C147.059 55.9336 145.945 55.1133 145.02 54.0469C144.105 52.9805 143.408 51.6914 142.928 50.1797C142.447 48.668 142.207 46.9746 142.207 45.0996V43.3242C142.207 41.4492 142.453 39.7559 142.945 38.2441C143.449 36.7207 144.164 35.4258 145.09 34.3594C146.027 33.293 147.146 32.4727 148.447 31.8984C149.748 31.3242 151.201 31.0371 152.807 31.0371C154.939 31.0371 156.738 31.4238 158.203 32.1973C159.68 32.9707 160.822 34.0371 161.631 35.3965C162.451 36.7559 162.943 38.3027 163.107 40.0371H157.834C157.775 39.0059 157.57 38.1328 157.219 37.418C156.867 36.6914 156.334 36.1465 155.619 35.7832C154.916 35.4082 153.979 35.2207 152.807 35.2207C151.928 35.2207 151.16 35.3848 150.504 35.7129C149.848 36.041 149.297 36.5391 148.852 37.207C148.406 37.875 148.072 38.7188 147.85 39.7383C147.639 40.7461 147.533 41.9297 147.533 43.2891V45.0996C147.533 46.4238 147.633 47.5898 147.832 48.5977C148.031 49.5938 148.336 50.4375 148.746 51.1289C149.168 51.8086 149.707 52.3242 150.363 52.6758C151.031 53.0156 151.834 53.1855 152.771 53.1855C153.873 53.1855 154.781 53.0098 155.496 52.6582C156.211 52.3066 156.756 51.7852 157.131 51.0938C157.518 50.4023 157.746 49.541 157.816 48.5098ZM187.559 43.6055V44.8184C187.559 46.7637 187.295 48.5098 186.768 50.0566C186.24 51.6035 185.496 52.9219 184.535 54.0117C183.574 55.0898 182.426 55.916 181.09 56.4902C179.766 57.0645 178.295 57.3516 176.678 57.3516C175.072 57.3516 173.602 57.0645 172.266 56.4902C170.941 55.916 169.793 55.0898 168.82 54.0117C167.848 52.9219 167.092 51.6035 166.553 50.0566C166.025 48.5098 165.762 46.7637 165.762 44.8184V43.6055C165.762 41.6484 166.025 39.9023 166.553 38.3672C167.08 36.8203 167.824 35.502 168.785 34.4121C169.758 33.3223 170.906 32.4902 172.23 31.916C173.566 31.3418 175.037 31.0547 176.643 31.0547C178.26 31.0547 179.73 31.3418 181.055 31.916C182.391 32.4902 183.539 33.3223 184.5 34.4121C185.473 35.502 186.223 36.8203 186.75 38.3672C187.289 39.9023 187.559 41.6484 187.559 43.6055ZM182.232 44.8184V43.5703C182.232 42.2109 182.109 41.0156 181.863 39.9844C181.617 38.9531 181.254 38.0859 180.773 37.3828C180.293 36.6797 179.707 36.1523 179.016 35.8008C178.324 35.4375 177.533 35.2559 176.643 35.2559C175.752 35.2559 174.961 35.4375 174.27 35.8008C173.59 36.1523 173.01 36.6797 172.529 37.3828C172.061 38.0859 171.703 38.9531 171.457 39.9844C171.211 41.0156 171.088 42.2109 171.088 43.5703V44.8184C171.088 46.166 171.211 47.3613 171.457 48.4043C171.703 49.4355 172.066 50.3086 172.547 51.0234C173.027 51.7266 173.613 52.2598 174.305 52.623C174.996 52.9863 175.787 53.168 176.678 53.168C177.568 53.168 178.359 52.9863 179.051 52.623C179.742 52.2598 180.322 51.7266 180.791 51.0234C181.26 50.3086 181.617 49.4355 181.863 48.4043C182.109 47.3613 182.232 46.166 182.232 44.8184ZM191.355 31.4062H200.9C202.857 31.4062 204.539 31.6992 205.945 32.2852C207.363 32.8711 208.453 33.7383 209.215 34.8867C209.977 36.0352 210.357 37.4473 210.357 39.123C210.357 40.4941 210.123 41.6719 209.654 42.6562C209.197 43.6289 208.547 44.4434 207.703 45.0996C206.871 45.7441 205.893 46.2598 204.768 46.6465L203.098 47.5254H194.801L194.766 43.4121H200.936C201.861 43.4121 202.629 43.248 203.238 42.9199C203.848 42.5918 204.305 42.1348 204.609 41.5488C204.926 40.9629 205.084 40.2832 205.084 39.5098C205.084 38.6895 204.932 37.9805 204.627 37.3828C204.322 36.7852 203.859 36.3281 203.238 36.0117C202.617 35.6953 201.838 35.5371 200.9 35.5371H196.629V57H191.355V31.4062ZM205.664 57L199.828 45.5918L205.4 45.5566L211.307 56.7539V57H205.664ZM235.248 31.4062V57H229.975L219.691 39.8438V57H214.418V31.4062H219.691L229.992 48.5801V31.4062H235.248Z" fill="#BC10D8"/>
<defs>
<clipPath id="clip0_1_64">
<rect width="61" height="90" fill="white"/>
</clipPath>
</defs>
</svg>
