<svg width="51" height="42" viewBox="0 0 51 42" fill="none" xmlns="http://www.w3.org/2000/svg">
<g clip-path="url(#clip0_1_165)">
<path d="M3.44125 28.8601H1.91995C1.49992 28.8601 1.1593 29.2007 1.1593 29.6207V40.8783C1.1593 41.2984 1.49992 41.639 1.91995 41.639H3.44125C3.86128 41.639 4.20189 41.2984 4.20189 40.8783V29.6207C4.20189 29.2007 3.86128 28.8601 3.44125 28.8601Z" fill="#808080"/>
<path d="M12.5691 28.8601H11.0478C10.6277 28.8601 10.2871 29.2007 10.2871 29.6207V40.8783C10.2871 41.2984 10.6277 41.639 11.0478 41.639H12.5691C12.9891 41.639 13.3297 41.2984 13.3297 40.8783V29.6207C13.3297 29.2007 12.9891 28.8601 12.5691 28.8601Z" fill="#808080"/>
<path d="M21.6968 20.6451H20.1755C19.7555 20.6451 19.4149 20.9857 19.4149 21.4057V40.8783C19.4149 41.2984 19.7555 41.639 20.1755 41.639H21.6968C22.1168 41.639 22.4574 41.2984 22.4574 40.8783V21.4057C22.4574 20.9857 22.1168 20.6451 21.6968 20.6451Z" fill="#808080"/>
<path d="M30.8246 14.2556H29.3033C28.8833 14.2556 28.5427 14.5962 28.5427 15.0163V40.8783C28.5427 41.2984 28.8833 41.639 29.3033 41.639H30.8246C31.2446 41.639 31.5853 41.2984 31.5853 40.8783V15.0163C31.5853 14.5962 31.2446 14.2556 30.8246 14.2556Z" fill="#808080"/>
<path d="M39.9524 20.6451H38.4311C38.011 20.6451 37.6704 20.9857 37.6704 21.4057V40.8783C37.6704 41.2984 38.011 41.639 38.4311 41.639H39.9524C40.3724 41.639 40.713 41.2984 40.713 40.8783V21.4057C40.713 20.9857 40.3724 20.6451 39.9524 20.6451Z" fill="#808080"/>
<path d="M49.0802 10.6045H47.5589C47.1388 10.6045 46.7982 10.9451 46.7982 11.3652V40.8783C46.7982 41.2984 47.1388 41.639 47.5589 41.639H49.0802C49.5002 41.639 49.8408 41.2984 49.8408 40.8783V11.3652C49.8408 10.9451 49.5002 10.6045 49.0802 10.6045Z" fill="#808080"/>
<path d="M48.3195 0.361023C47.1171 0.361023 46.1389 1.33922 46.1389 2.54165C46.1389 3.00184 46.2831 3.42857 46.5274 3.7809L39.8671 13.3275C39.6541 13.258 39.4274 13.2192 39.1917 13.2192C38.6754 13.2192 38.2014 13.4004 37.8274 13.7013L32.1853 9.62648C32.2228 9.46644 32.2446 9.30062 32.2446 9.12932C32.2446 7.92704 31.2664 6.94885 30.064 6.94885C28.8615 6.94885 27.8833 7.92689 27.8833 9.12932C27.8833 9.32831 27.9124 9.52014 27.9624 9.70331L21.8487 14.4584C21.5706 14.3296 21.2622 14.2556 20.936 14.2556C19.7348 14.2556 18.7575 15.232 18.7556 16.4326L13.2503 19.3687C12.8654 19.0282 12.3612 18.8195 11.8083 18.8195C10.9928 18.8195 10.2816 19.27 9.90755 19.9345L4.81698 19.1426C4.61389 18.1491 3.73306 17.3995 2.68047 17.3995C1.47819 17.3995 0.5 18.3777 0.5 19.5802C0.5 20.7825 1.47819 21.7606 2.68063 21.7606C3.49604 21.7606 4.20725 21.3102 4.58133 20.6455L9.6719 21.4374C9.87499 22.4309 10.7558 23.1805 11.8084 23.1805C13.0108 23.1805 13.989 22.2023 13.989 20.9998C13.989 20.9016 13.9802 20.8054 13.9674 20.7103L19.2961 17.8684C19.696 18.3259 20.282 18.6166 20.936 18.6166C22.1385 18.6166 23.1167 17.6384 23.1167 16.436C23.1167 16.1195 23.0474 15.8195 22.9256 15.5478L28.8503 10.9398C29.1974 11.1732 29.6149 11.3098 30.0638 11.3098C30.5409 11.3098 30.9813 11.154 31.3408 10.8931L37.0472 15.0143C37.0247 15.1397 37.011 15.2681 37.011 15.3996C37.011 16.6019 37.9892 17.5801 39.1916 17.5801C40.394 17.5801 41.3722 16.6019 41.3722 15.3996C41.3722 14.9894 41.2561 14.6066 41.0582 14.2785L47.7754 4.65062C47.9497 4.69565 48.1312 4.72212 48.3194 4.72212C49.5218 4.72212 50.5 3.74393 50.5 2.54165C50.5002 1.33922 49.522 0.361023 48.3195 0.361023Z" fill="#808080"/>
</g>
<defs>
<clipPath id="clip0_1_165">
<rect width="50" height="41.278" fill="white" transform="translate(0.5 0.361023)"/>
</clipPath>
</defs>
</svg>
